<svg version="1.1" id="Layer_1" xmlns="http://www.w3.org/2000/svg" xmlns:xlink="http://www.w3.org/1999/xlink" x="0px" y="0px"
	 width="100%" viewBox="0 0 384 304" enable-background="new 0 0 384 304" xml:space="preserve">
<path fill="#000000" opacity="1.000000" stroke="none" 
	d="
M385.000000,60.562500 
	C373.773529,64.646736 362.492798,67.917496 350.721100,69.548851 
	C334.872711,71.745155 318.956635,72.613823 303.005341,73.350136 
	C284.564240,74.201370 266.120178,75.103516 248.005646,79.167130 
	C237.762680,81.464928 228.518860,85.845001 220.016953,91.927307 
	C215.188370,95.381691 212.493546,100.333710 210.413666,105.650749 
	C206.024719,116.870743 202.861603,128.295837 203.335846,140.587402 
	C204.158401,161.906906 202.136169,183.201263 202.369492,204.522156 
	C202.390350,206.428528 201.689941,208.534225 203.737274,210.692886 
	C215.965286,205.625732 228.178787,200.216751 234.945663,187.736481 
	C241.272781,176.067215 234.639038,163.580963 221.534760,161.090454 
	C217.987213,160.416229 214.233459,160.356430 211.052658,158.144104 
	C207.737137,155.838120 205.745819,152.915024 206.899200,148.833923 
	C207.950821,145.112793 211.294296,144.625305 214.537369,144.449783 
	C220.107300,144.148346 225.017258,145.670578 229.107300,149.694626 
	C232.189285,152.726883 235.471725,155.558258 238.709717,158.428543 
	C248.034058,166.694092 249.375473,182.537292 241.726334,194.181137 
	C236.108200,202.733322 227.950424,208.007599 218.828735,212.088989 
	C215.515579,213.571442 211.862625,214.347809 208.292709,217.100479 
	C214.903442,222.165207 220.707047,227.702789 219.220825,236.853058 
	C217.850403,245.290405 211.270767,249.952332 204.646759,255.479187 
	C211.571625,260.073547 216.514297,265.482086 215.228424,274.036407 
	C214.021103,282.068146 208.146530,286.879974 202.556152,291.406067 
	C203.035812,294.526581 206.746246,295.640717 205.483719,299.650818 
	C203.710129,294.644714 198.858261,299.354736 196.643250,295.812134 
	C192.428314,297.920685 193.706436,301.120667 194.958282,304.653137 
	C194.555557,305.000000 194.111099,305.000000 193.333328,305.000000 
	C190.592270,300.229919 191.332504,295.972931 195.799316,292.039368 
	C190.171478,286.793762 183.646591,282.567841 182.671677,274.335876 
	C181.661240,265.803528 185.659958,259.986145 193.489151,255.715240 
	C186.717026,249.914948 179.795273,245.365723 178.700317,236.600372 
	C177.593979,227.743942 182.260330,221.838165 190.007095,217.055405 
	C183.682480,214.110504 178.342484,211.883347 173.244385,209.197037 
	C162.167923,203.360596 153.894409,195.162949 151.429840,182.253189 
	C149.660110,172.983032 152.243500,165.147095 158.942444,158.653320 
	C162.526184,155.179337 166.287582,151.887634 169.993057,148.540497 
	C174.779846,144.216599 180.557648,143.779007 186.441269,144.937683 
	C191.309708,145.896439 192.745544,151.000870 189.752090,155.143158 
	C186.460419,159.698105 181.414505,160.224426 176.509506,161.106247 
	C161.966095,163.720810 155.625519,178.092667 163.917786,190.091614 
	C170.841660,200.110504 181.274902,205.388870 192.094086,209.994141 
	C194.959839,211.213974 195.637375,209.481888 195.637360,207.071259 
	C195.637344,201.739029 195.950165,196.385269 195.583847,191.078384 
	C194.195557,170.966064 194.511963,150.808762 193.773148,130.679474 
	C192.817505,104.642982 173.583862,83.554604 145.933609,78.290474 
	C123.116013,73.946411 99.982384,73.714813 76.930580,72.347778 
	C55.300068,71.065041 33.761345,69.360481 13.529247,60.552792 
	C7.115987,57.760891 4.763926,56.261044 2.495938,53.018299 
	C5.592140,51.624790 8.394219,53.187099 11.126148,53.736561 
	C24.069742,56.339832 37.232929,56.922829 50.325542,57.501991 
	C70.270500,58.384277 90.262222,58.147709 110.224899,58.711376 
	C125.172302,59.133434 140.125702,59.824490 154.908752,62.395199 
	C156.069107,62.596973 157.219818,62.824627 158.584930,61.490795 
	C151.775818,39.611820 156.908463,20.890888 177.179214,8.804049 
	C192.956284,-0.603341 210.311172,-0.683627 225.089539,10.802128 
	C241.696564,23.709114 246.236389,41.507008 239.264236,62.269230 
	C245.858490,61.829552 251.875229,61.106567 257.892609,61.101006 
	C267.418396,61.092205 276.705261,58.849270 286.213226,58.652924 
	C312.288483,58.114464 338.363129,57.454319 364.427399,56.541004 
	C371.040558,56.309269 377.614319,54.953236 384.603088,54.056904 
	C385.000000,56.041668 385.000000,58.083332 385.000000,60.562500 
M178.224014,68.294746 
	C196.707642,81.576988 205.367340,78.515388 222.117706,65.954521 
	C230.564590,59.620335 233.076782,49.464394 230.440979,38.929325 
	C227.567123,27.442760 220.334442,19.636171 208.952164,16.011478 
	C194.152649,11.298568 178.039932,17.605097 170.780746,30.811882 
	C163.884750,43.357895 166.655533,58.302551 178.224014,68.294746 
M196.677948,243.307404 
	C196.677948,236.405594 196.677948,229.503769 196.677948,222.368210 
	C188.285919,224.484070 184.186691,229.254868 184.330734,235.748596 
	C184.464539,241.781296 190.116730,248.719986 196.159302,250.075165 
	C197.011505,248.198410 196.562469,246.181152 196.677948,243.307404 
M204.187256,249.463516 
	C207.954987,247.119980 210.709015,243.896805 212.494370,239.845245 
	C215.723160,232.517990 210.854523,224.287598 202.035767,223.105118 
	C200.814224,231.799973 201.298264,240.515015 201.594711,249.210892 
	C201.630615,250.264221 202.778961,250.071854 204.187256,249.463516 
M195.747162,259.656677 
	C189.362976,262.477234 185.095734,267.940643 185.364639,272.949646 
	C185.649857,278.263214 191.758408,285.964386 197.632263,287.789490 
	C197.632263,279.855255 197.660294,272.111694 197.609085,264.368652 
	C197.598602,262.781647 198.113220,260.980957 195.747162,259.656677 
M200.984665,262.344910 
	C201.834534,270.666687 198.985306,279.047546 201.025742,287.674530 
	C205.061234,286.469238 206.919952,283.453064 209.024277,280.770660 
	C215.557770,272.442413 211.241928,265.194397 204.774933,260.998199 
	C203.428192,260.124329 201.856201,258.683929 200.984665,262.344910 
z"/>
</svg>